# xmcd
#
# Track frame offsets:
#	150
#	8555
#	23362
#	42367
#	54659
#	64858
#	75440
#	89365
#	96737
#	111924
#	127003
#	139592
#
# Disc length: 2002 seconds
#
# Revision: 0
# Processed by: cddbd v1.4PL0 Copyright (c) Steve Scherf et al.
# Submitted via: dBpowerAMP V4.0
#
DISCID=9807d00c
DTITLE=Various Artist - Country Classics Vol. 2
DYEAR=1900
DGENRE=Country
TTITLE0=Burning Memories
TTITLE1=Folson Prison Blues
TTITLE2=Delta Dawn 
TTITLE3=Lonely Days Lonely Knights
TTITLE4=Wasted Days And Wasted Knights
TTITLE5=I've Never Loved Anyone More
TTITLE6=The Most Beautifull Girl
TTITLE7=The Last Letter
TTITLE8=Fool's Gold 
TTITLE9=Rocky Top
TTITLE10=If You Want To Be My Woman
TTITLE11=I Thought I Heard You Calling My Name 
EXTD=
EXTT0=
EXTT1=
EXTT2=
EXTT3=
EXTT4=
EXTT5=
EXTT6=
EXTT7=
EXTT8=
EXTT9=
EXTT10=
EXTT11=
PLAYORDER=
